<svg xmlns="http://www.w3.org/2000/svg" width="420" height="210" viewBox="0 0 420 210"><path fill="none" d="M0 0h420v210h-420z"/><path fill="#CFD8DC" d="M101 25h289.95v60h-289.95z"/><path fill="#263238" d="M102.07 25h20.59v30h-20.59v-30zm20.59 30h20.59v30h-20.59v-30zm20.59-30h20.59v30h-20.59v-30zm20.6 30h20.59v30h-20.59v-30zm20.59-30h20.59v30h-20.59v-30zm20.6 30h20.59v30h-20.59v-30zm20.59-30h20.59v30h-20.59v-30zm20.59 30h20.59v30h-20.59v-30zm20.6-30h20.59v30h-20.59v-30zm20.59 30h20.59v30h-20.59v-30zm20.59-30h20.6v30h-20.6v-30zm20.6 30h20.59v30h-20.59v-30zm21.16-30h20.59v30h-20.6l.01-30zm20.59 30h20.59v30h-20.6l.01-30z"/><path fill="#263238" d="M27 25v122c0 13.81 11.19 25 25 25h25c13.81 0 25-11.19 25-25v-122h-75zm50 127h-25v-67h25v67z"/><path fill="#37474F" d="M27 25h75v30h-75z"/><path fill="#263238" d="M122.06 172.06v-6.21l17.01-64.29h-16.06v-6.1h23.99v1.8l-18.17 68.7h18.17v6.1h-24.94zM159.99 103.46c0 1.4-.49 2.47-1.48 3.2s-2.15 1.1-3.49 1.1c-1.48 0-2.59-.43-3.33-1.3-.74-.87-1.11-1.97-1.11-3.3 0-1.27.51-2.23 1.53-2.9 1.02-.67 2.13-1 3.33-1 1.2 0 2.25.45 3.17 1.35.92.9 1.38 1.85 1.38 2.85zm-8.24 68.6v-56.7h6.34v56.7h-6.34zM183.44 164.66c-.14 1.93-.42 3.5-.85 4.7-.42 1.2-1.04 2.08-1.85 2.65-.81.57-1.92.85-3.33.85-1.83 0-3.33-.5-4.49-1.5s-2.24-2.13-3.22-3.4v24h-6.34v-76.7h4.97l1.37 4.6c.21-.53.51-1.1.9-1.7.39-.6.86-1.17 1.43-1.7.56-.53 1.2-.98 1.9-1.35.7-.37 1.51-.55 2.43-.55 2.82 0 4.74 1.12 5.76 3.35 1.02 2.23 1.53 6.12 1.53 11.65v28c.01 2.8-.07 5.17-.21 7.1zm-6.12-37c0-2.8-.26-4.77-.79-5.9-.53-1.13-1.53-1.7-3.01-1.7-.99 0-1.87.57-2.64 1.7-.78 1.13-1.16 3.1-1.16 5.9v33c0 2.27.28 3.9.85 4.9.56 1 1.55 1.5 2.96 1.5 1.48 0 2.48-.57 3.01-1.7.53-1.13.79-3.1.79-5.9v-31.8zM188.94 172.06v-76.6h6.55v70.5h10.78v6.1h-17.33zM229.78 165.01c-.32 1.9-.88 3.43-1.69 4.6-.81 1.17-1.87 2.02-3.17 2.55-1.3.53-2.91.8-4.81.8-3.88 0-6.53-1.13-7.98-3.4-1.44-2.27-2.17-6.13-2.17-11.6v-28c0-5.47.72-9.33 2.17-11.6 1.44-2.27 4.1-3.4 7.98-3.4 1.9 0 3.5.27 4.81.8 1.3.53 2.36 1.38 3.17 2.55s1.37 2.7 1.69 4.6c.32 1.9.47 4.25.47 7.05v28c0 2.8-.16 5.15-.47 7.05zm-5.87-36.95c0-2.8-.26-4.77-.79-5.9-.53-1.13-1.53-1.7-3.01-1.7s-2.48.57-3.01 1.7c-.53 1.13-.79 3.1-.79 5.9v31.8c0 2.8.26 4.77.79 5.9.53 1.13 1.53 1.7 3.01 1.7s2.48-.57 3.01-1.7c.53-1.13.79-3.1.79-5.9v-31.8zM251.91 172.06l-1.37-4.6c-.21.47-.51 1.02-.9 1.65-.39.63-.86 1.22-1.43 1.75-.56.53-1.2.98-1.9 1.35-.71.37-1.52.55-2.43.55-2.82 0-4.74-1.12-5.76-3.35-1.02-2.23-1.53-6.12-1.53-11.65v-1c0-2.8.07-5.17.21-7.1.14-1.93.42-3.5.85-4.7.42-1.2 1.04-2.08 1.85-2.65.81-.57 1.92-.85 3.33-.85 1.83 0 3.33.5 4.49 1.5s2.24 2.13 3.22 3.4v-18.3c0-2.8-.26-4.77-.79-5.9-.53-1.13-1.53-1.7-3.01-1.7s-2.48.57-3.01 1.7c-.53 1.13-.79 3.1-.79 5.9v5.4h-6.34v-3.5c0-4.53.72-8.17 2.17-10.9 1.44-2.73 4.1-4.1 7.98-4.1 3.8 0 6.45 1.1 7.92 3.3s2.22 5.93 2.22 11.2v42.6h-4.98zm-1.37-18.4c0-2.27-.28-3.9-.85-4.9-.56-1-1.55-1.5-2.96-1.5-1.48 0-2.48.57-3.01 1.7-.53 1.13-.79 3.1-.79 5.9v4.8c0 2.8.26 4.77.79 5.9.53 1.13 1.53 1.7 3.01 1.7.99 0 1.87-.57 2.64-1.7s1.16-3.1 1.16-5.9v-6zM278.75 172.06l-1.37-4.6c-.21.47-.51 1.02-.9 1.65-.39.63-.86 1.22-1.43 1.75-.56.53-1.2.98-1.9 1.35-.71.37-1.52.55-2.43.55-2.82 0-4.74-1.12-5.76-3.35-1.02-2.23-1.53-6.12-1.53-11.65v-28c0-2.8.07-5.17.21-7.1.14-1.93.42-3.5.85-4.7.42-1.2 1.04-2.08 1.85-2.65.81-.57 1.92-.85 3.33-.85 1.83 0 3.33.5 4.49 1.5s2.24 2.13 3.22 3.4v-24h6.34v76.7h-4.97zm-1.37-45.4c0-2.27-.28-3.9-.84-4.9-.57-1-1.55-1.5-2.96-1.5-1.48 0-2.48.57-3.01 1.7-.53 1.13-.79 3.1-.79 5.9v31.8c0 2.8.26 4.77.79 5.9.53 1.13 1.53 1.7 3.01 1.7.99 0 1.87-.57 2.64-1.7s1.16-3.1 1.16-5.9v-33zM310.92 165.01c-.32 1.9-.88 3.43-1.69 4.6-.81 1.17-1.87 2.02-3.17 2.55-1.3.53-2.91.8-4.81.8-3.88 0-6.53-1.13-7.98-3.4-1.44-2.27-2.17-6.13-2.17-11.6v-28c0-5.47.72-9.33 2.17-11.6 1.44-2.27 4.1-3.4 7.98-3.4 1.9 0 3.5.27 4.81.8 1.3.53 2.36 1.38 3.17 2.55s1.37 2.7 1.69 4.6c.32 1.9.48 4.25.48 7.05v16h-13.95v13.9c0 2.8.26 4.77.79 5.9.53 1.13 1.53 1.7 3.01 1.7s2.48-.57 3.01-1.7c.53-1.13.79-3.1.79-5.9v-6.5h6.34v4.6c.01 2.8-.15 5.15-.47 7.05zm-5.86-36.95c0-2.8-.26-4.77-.79-5.9-.53-1.13-1.53-1.7-3.01-1.7s-2.48.57-3.01 1.7c-.53 1.13-.79 3.1-.79 5.9v12.5h7.61v-12.5zM331.9 122.36c-.78-.2-1.53-.43-2.27-.7-.74-.27-1.43-.4-2.06-.4-.99 0-1.81.57-2.48 1.7-.67 1.13-1 3.4-1 6.8v42.3h-6.34v-56.7h4.97l1.37 4.6c.21-.53.51-1.1.9-1.7.39-.6.86-1.17 1.43-1.7.56-.53 1.2-.98 1.9-1.35.7-.37 1.51-.55 2.43-.55.56 0 1.07.07 1.53.2.46.13.86.27 1.22.4l1.06.6-2.66 6.5zM339.19 169.16c0 1.27-.51 2.23-1.53 2.9-1.02.67-2.13 1-3.33 1-1.2 0-2.25-.45-3.17-1.35-.92-.9-1.37-1.85-1.37-2.85 0-1.4.49-2.47 1.48-3.2s2.15-1.1 3.49-1.1c1.48 0 2.59.43 3.33 1.3.73.87 1.1 1.97 1.1 3.3zM351.65 184.61c-.21 1.9-.65 3.45-1.32 4.65-.67 1.2-1.6 2.07-2.8 2.6-1.2.53-2.75.8-4.65.8-.78 0-1.5-.05-2.17-.15-.67-.1-1.36-.22-2.06-.35v-5h3.17c1.48 0 2.48-.57 3.01-1.7.53-1.13.79-3.1.79-5.9v-64.3h6.34v62.4c.01 2.73-.09 5.05-.31 6.95zm2.12-81.15c0 1.4-.49 2.47-1.48 3.2s-2.15 1.1-3.49 1.1c-1.48 0-2.59-.43-3.33-1.3-.74-.87-1.11-1.97-1.11-3.3 0-1.27.51-2.23 1.53-2.9 1.02-.67 2.13-1 3.33-1 1.2 0 2.25.45 3.17 1.35.92.9 1.38 1.85 1.38 2.85zM379.13 156.86c0 5.6-.72 9.67-2.17 12.2-1.44 2.53-4.1 3.8-7.98 3.8-4.37 0-7.33-1.3-8.88-3.9-1.55-2.6-2.32-6.63-2.32-12.1v-3.5h6.34v6.4c0 2.8.3 4.77.9 5.9.6 1.13 1.92 1.7 3.96 1.7 1.48 0 2.48-.65 3.01-1.95.53-1.3.79-3.85.79-7.65 0-1.67-.37-3.2-1.11-4.6-.74-1.4-1.67-2.73-2.8-4s-2.33-2.55-3.59-3.85-2.47-2.68-3.59-4.15c-1.13-1.46-2.06-3.08-2.8-4.85-.74-1.77-1.11-3.78-1.11-6.05 0-5.47.77-9.5 2.32-12.1 1.55-2.6 4.51-3.9 8.88-3.9 3.87 0 6.53 1.27 7.98 3.8 1.44 2.53 2.17 6.6 2.17 12.2v4h-6.34v-6.9c0-2.8-.26-4.77-.79-5.9-.53-1.13-1.53-1.7-3.01-1.7-.99 0-1.8.15-2.43.45-.63.3-1.13.8-1.48 1.5-.35.7-.6 1.65-.74 2.85-.14 1.2-.21 2.73-.21 4.6 0 2.2.37 4.1 1.11 5.7.74 1.6 1.67 3.03 2.8 4.3s2.33 2.48 3.59 3.65c1.27 1.17 2.46 2.4 3.59 3.7 1.13 1.3 2.06 2.78 2.8 4.45.74 1.67 1.11 3.63 1.11 5.9z"/></svg>
